# xmcd
#
# Track frame offsets: 
#        150
#        8523
#        29409
#        49273
#        71567
#        94991
#        118738
#        140438
#        162798
#        190001
#        212955
#        239796
#
# Disc length: 3571 seconds
#
# Revision: 0
# Processed by: cddbd v1.5.2PL0 Copyright (c) Steve Scherf et al.
# Submitted via: ExactAudioCopy v1.0b3
#
DISCID=ab0df10c
DTITLE=Hero's Fate - Human Tides: Black Light Inception
DYEAR=2012
DGENRE=Progressive Death Metal
TTITLE0=Invoking The Doom
TTITLE1=Blood Will Never Run Dry
TTITLE2=Drowning In Sorrow
TTITLE3=Apathy
TTITLE4=Dead Waters
TTITLE5=Faceless
TTITLE6=I Am King
TTITLE7=Masks
TTITLE8=The Absence Of Light
TTITLE9=Surrogate Of A New World
TTITLE10=Dawn Of The Black Light
TTITLE11=Tranquillity
EXTD=
EXTT0=
EXTT1=
EXTT2=
EXTT3=
EXTT4=
EXTT5=
EXTT6=
EXTT7=
EXTT8=
EXTT9=
EXTT10=
EXTT11=
PLAYORDER=
